<svg width="431" height="674" viewBox="0 0 431 674" fill="none" xmlns="http://www.w3.org/2000/svg">
<path d="M110.853 480.421C172.075 480.421 221.706 433.195 221.706 374.939C221.706 316.683 172.075 269.457 110.853 269.457C49.6305 269.457 0 316.683 0 374.939C0 433.195 49.6305 480.421 110.853 480.421Z" fill="#F0F0F0"/>
<path d="M111.157 374.941H111.462L116.944 674.001H105.371L111.157 374.941Z" fill="#F0F0F0"/>
<path d="M247.025 350.124C348.631 350.124 431 271.746 431 175.062C431 78.3779 348.631 0 247.025 0C145.418 0 63.0488 78.3779 63.0488 175.062C63.0488 271.746 145.418 350.124 247.025 350.124Z" fill="#112255"/>
<path opacity="0.1" d="M382.866 58.1328C400.027 96.3301 402.355 139.089 389.434 178.769C376.514 218.45 349.186 252.465 312.335 274.738C275.483 297.01 231.51 306.089 188.272 300.35C145.034 294.612 105.349 274.431 76.3086 243.413C86.7917 266.75 102.482 287.639 122.291 304.634C142.101 321.628 165.556 334.321 191.033 341.833C216.509 349.345 243.398 351.497 269.835 348.139C296.272 344.781 321.626 335.994 344.14 322.387C366.655 308.779 385.79 290.677 400.222 269.334C414.654 247.991 424.037 223.917 427.721 198.781C431.405 173.645 429.301 148.047 421.556 123.761C413.811 99.4751 400.609 77.0819 382.866 58.1328V58.1328Z" fill="#6083EC"/>
<path d="M246.518 175.062H246.012L236.914 671.393H256.121L246.518 175.062Z" fill="#3F3D56"/>
</svg>
